<?xml version="1.0" standalone="no"?>
<!DOCTYPE svg PUBLIC "-//W3C//DTD SVG 20010904//EN"
 "http://www.w3.org/TR/2001/REC-SVG-20010904/DTD/svg10.dtd">
<svg version="1.0" xmlns="http://www.w3.org/2000/svg"
 width="917.000000pt" height="917.000000pt" viewBox="0 0 917.000000 917.000000"
 preserveAspectRatio="xMidYMid meet">
<metadata>
Created by potrace 1.14, written by Peter Selinger 2001-2017
</metadata>
<g transform="translate(0.000000,917.000000) scale(0.100000,-0.100000)"
fill="#000000" stroke="none">
<path d="M4550 8978 c-75 -67 -270 -207 -399 -285 -153 -94 -442 -232 -619
-298 -424 -155 -731 -209 -1192 -209 -226 0 -297 4 -485 28 -244 30 -352 47
-468 75 -56 13 -80 15 -82 7 -21 -59 -98 -527 -120 -721 -57 -520 -58 -1105
-4 -1635 137 -1353 685 -2852 1447 -3960 413 -601 935 -1151 1474 -1553 114
-85 390 -270 475 -318 49 -28 34 -33 203 75 805 514 1518 1265 2057 2166 133
221 198 342 328 605 462 933 777 2009 875 2980 79 789 36 1646 -116 2317 l-15
67 -47 -15 c-97 -29 -305 -64 -532 -90 -215 -24 -258 -26 -505 -21 -445 10
-741 61 -1110 192 -403 143 -763 349 -1070 609 l-40 34 -55 -50z m125 -170
c36 -29 65 -57 65 -63 0 -6 -18 -332 -40 -725 -22 -393 -40 -716 -40 -717 0
-2 -22 -3 -49 -3 l-49 0 -6 73 c-6 68 -76 1334 -76 1369 0 12 111 115 127 118
1 0 32 -23 68 -52z m-291 -853 c48 -352 86 -645 86 -651 0 -6 -19 -14 -42 -18
-24 -3 -87 -16 -141 -28 -53 -11 -100 -19 -103 -16 -6 7 -494 1066 -494 1073
0 2 24 14 53 27 91 38 420 206 482 246 51 33 61 37 67 23 4 -9 45 -304 92
-656z m665 598 c89 -53 302 -160 391 -198 36 -15 69 -30 73 -35 7 -6 -469
-1060 -487 -1077 -2 -3 -44 4 -93 16 -48 11 -112 23 -141 27 -51 6 -53 8 -48
33 7 33 176 1286 176 1302 0 7 10 5 28 -7 15 -10 60 -37 101 -61z m-1254 -818
c152 -269 283 -499 290 -511 12 -19 9 -22 -45 -46 l-58 -25 -373 500 c-206
275 -375 503 -377 507 -1 4 32 16 75 28 43 12 103 30 133 41 41 14 58 16 66 7
6 -6 136 -231 289 -501z m2094 459 c47 -13 87 -26 89 -28 5 -6 -741 -1005
-751 -1006 -5 0 -31 10 -58 21 -38 17 -49 26 -44 38 7 18 564 1000 577 1017 6
9 21 8 56 -3 26 -8 85 -25 131 -39z m1936 -85 c5 -38 4 -54 -6 -64 -17 -14
-2186 -1175 -2197 -1175 -11 0 -67 59 -61 64 2 2 402 261 889 576 l885 572
120 16 c66 8 167 25 225 37 148 31 137 33 145 -26z m-6294 21 c59 -10 160 -26
224 -34 l117 -16 877 -566 c482 -312 882 -572 889 -578 10 -9 5 -18 -20 -42
l-33 -31 -1102 591 c-809 433 -1102 595 -1099 606 2 8 7 32 11 53 3 20 11 37
18 37 7 0 60 -9 118 -20z m4857 -35 c102 -14 366 -33 516 -38 l69 -2 -724
-529 c-398 -291 -729 -533 -735 -538 -8 -6 -40 11 -90 47 -42 31 -84 60 -92
64 -19 11 -51 -26 468 556 413 463 415 465 448 460 19 -4 82 -13 140 -20z
m-2936 -489 l446 -499 -76 -51 c-41 -28 -85 -57 -96 -65 -21 -13 -65 18 -758
525 l-737 539 227 6 c196 5 477 31 492 45 2 3 16 4 31 2 20 -2 121 -110 471
-502z m4442 74 c17 -136 45 -424 43 -427 -1 0 -483 -136 -1071 -301 l-1069
-299 -61 80 c-33 44 -56 82 -51 84 6 2 498 230 1095 507 597 277 1088 501
1091 497 4 -3 14 -67 23 -141z m-5436 -371 l1081 -501 -51 -67 c-29 -36 -55
-70 -58 -74 -5 -6 -1951 531 -2117 584 -31 10 -32 12 -27 57 45 461 53 514 74
507 9 -3 503 -231 1098 -506z m2363 -155 c522 -88 945 -497 1053 -1018 l14
-68 -91 7 c-214 16 -428 62 -682 146 -328 108 -537 124 -800 58 -44 -11 -154
-44 -245 -74 -243 -79 -526 -135 -681 -135 -58 0 -58 -2 -29 120 119 493 527
876 1030 963 115 20 314 21 431 1z m-2497 -334 c577 -126 1051 -231 1053 -233
2 -3 -6 -25 -18 -50 -20 -40 -26 -45 -48 -41 -14 2 -465 63 -1001 134 -536 71
-990 132 -1007 135 l-33 6 0 139 c0 77 1 140 3 140 1 0 475 -103 1051 -230z
m5619 -50 c-4 -4 -456 -66 -1003 -139 -547 -73 -1009 -134 -1025 -137 -28 -5
-32 -2 -53 42 -13 25 -22 47 -20 48 2 2 476 106 1053 232 l1050 229 3 -134 c1
-74 -1 -137 -5 -141z m-5628 -281 c539 -40 981 -73 982 -74 1 0 -11 -39 -27
-87 -16 -47 -37 -126 -46 -175 l-17 -89 -31 3 c-167 18 -330 55 -634 143 -114
32 -246 66 -294 74 -328 57 -618 32 -886 -76 -40 -17 -75 -28 -77 -26 -2 2 -7
90 -11 196 l-7 193 34 -5 c19 -3 475 -38 1014 -77z m5630 -157 c-6 -128 -9
-143 -24 -136 -9 4 -65 24 -126 45 -184 63 -254 74 -475 74 -239 0 -338 -15
-597 -91 -333 -97 -583 -154 -679 -154 -30 0 -31 1 -44 73 -7 39 -27 116 -44
170 -18 53 -32 97 -31 98 0 0 455 35 1010 78 l1010 77 3 -46 c2 -25 1 -109 -3
-188z m-363 -163 c98 -19 245 -67 307 -99 34 -17 35 -19 32 -71 -1 -30 -6 -57
-10 -62 -4 -4 -45 8 -92 27 -185 75 -347 101 -568 93 -209 -8 -299 -24 -606
-112 -426 -121 -472 -130 -720 -129 -294 0 -481 33 -823 146 -184 60 -304 86
-437 94 -169 11 -304 -14 -605 -111 -262 -84 -478 -126 -735 -140 -190 -11
-370 22 -795 145 -230 66 -323 85 -504 100 -242 19 -464 -20 -702 -126 -14 -6
-24 27 -24 79 0 38 1 39 73 72 173 80 396 121 602 112 184 -9 289 -28 545
-102 454 -130 570 -150 815 -142 276 9 482 48 804 151 261 84 356 101 525 93
150 -8 227 -24 463 -101 278 -90 496 -130 766 -142 218 -10 410 25 867 159
165 49 299 75 465 91 77 7 261 -5 357 -25z m-19 -260 c101 -20 183 -48 280
-93 60 -29 60 -29 41 -123 l-4 -21 -67 28 c-180 76 -361 107 -567 97 -175 -9
-313 -31 -460 -74 -540 -159 -684 -185 -947 -172 -245 13 -422 48 -707 140
-259 83 -355 102 -527 102 -170 0 -252 -16 -515 -101 -291 -94 -494 -134 -750
-148 -208 -11 -352 14 -780 136 -304 86 -382 100 -591 107 -237 8 -378 -17
-558 -98 -35 -16 -66 -27 -68 -25 -3 2 -7 31 -10 63 l-5 59 68 31 c187 83 369
118 569 109 183 -8 288 -27 545 -101 457 -131 570 -150 820 -142 272 9 474 47
785 147 272 87 313 95 500 94 184 -1 231 -10 501 -98 279 -90 497 -130 767
-142 218 -10 410 25 867 159 165 49 298 75 465 91 76 7 250 -5 348 -25z
m-5380 -265 c54 -8 214 -49 357 -89 424 -121 475 -130 735 -130 313 0 505 33
863 149 252 82 292 90 467 89 179 -1 239 -12 490 -93 300 -96 513 -137 780
-147 236 -9 370 14 802 138 303 87 368 99 575 106 234 8 352 -13 531 -95 l79
-36 -7 -45 c-28 -203 -140 -688 -229 -996 -536 -1853 -1579 -3360 -2904 -4199
l-104 -65 -51 32 c-978 601 -1818 1570 -2414 2786 -331 676 -595 1461 -742
2208 -58 290 -60 261 29 305 86 42 224 84 320 98 85 12 299 4 423 -16z"/>
<path d="M4457 5368 c34 -98 41 -203 19 -263 -10 -25 -20 -45 -23 -45 -3 0
-27 16 -53 35 -59 43 -137 78 -210 95 -86 19 -94 14 -68 -40 17 -35 22 -65 22
-130 1 -82 -1 -89 -50 -195 -77 -167 -87 -203 -82 -304 5 -100 27 -152 91
-218 l41 -43 -21 -22 c-86 -94 -75 -248 23 -325 19 -15 44 -49 56 -75 18 -42
76 -108 105 -119 5 -2 23 -304 42 -724 17 -396 35 -762 38 -813 6 -87 5 -92
-14 -92 -11 0 -39 -14 -62 -31 -131 -94 -95 -304 59 -350 35 -11 40 -16 40
-41 0 -16 7 -171 15 -345 14 -276 18 -321 36 -355 32 -63 108 -98 185 -84 47
9 111 69 123 115 5 20 14 153 20 296 6 143 14 292 17 331 l5 71 40 12 c45 13
103 61 124 100 52 101 5 225 -102 273 -41 18 -43 21 -43 61 0 23 16 380 35
792 19 413 35 758 35 767 0 9 16 26 36 39 36 22 94 100 94 126 0 7 19 30 42
51 102 92 104 236 4 332 l-36 34 34 36 c90 91 109 208 62 384 -33 126 -36 266
-6 374 11 39 20 73 20 75 0 2 -19 1 -43 -3 -59 -9 -126 -43 -183 -93 -28 -24
-49 -37 -51 -30 -14 40 -97 149 -164 216 -67 66 -247 197 -271 197 -4 0 5 -33
19 -72z m198 -180 c211 -212 258 -432 141 -671 -36 -73 -130 -207 -146 -207
-5 0 -21 25 -36 56 -50 103 -43 269 16 372 27 46 8 40 -34 -11 -83 -101 -101
-219 -53 -349 l25 -68 -34 0 c-31 0 -35 4 -71 76 -33 68 -37 86 -37 148 0 85
15 122 102 255 34 51 62 104 62 118 0 24 -1 24 -27 -9 -15 -18 -58 -65 -95
-105 -90 -94 -122 -163 -122 -258 1 -66 9 -95 61 -213 4 -10 -4 -13 -33 -10
-37 3 -40 6 -76 75 -60 118 -61 223 -2 340 13 28 63 92 110 144 115 127 159
213 159 316 0 40 4 73 9 73 4 0 41 -33 81 -72z m-355 -121 c54 -32 100 -68
100 -79 0 -5 -25 -38 -56 -71 -121 -133 -165 -229 -166 -362 0 -80 23 -166 60
-223 22 -35 8 -37 -43 -8 -84 50 -130 171 -105 281 6 28 33 98 60 157 65 142
83 207 78 279 -4 56 -3 59 16 53 12 -3 37 -16 56 -27z m735 -164 c0 -121 4
-150 29 -238 21 -74 27 -112 22 -148 -7 -60 -50 -140 -95 -178 -34 -28 -40
-29 -133 -29 l-98 0 40 58 c110 162 159 356 126 502 l-15 65 55 53 c30 28 58
52 62 52 4 0 7 -62 7 -137z m-31 -692 c45 -30 66 -70 66 -126 0 -56 -21 -96
-66 -126 -27 -18 -53 -19 -395 -19 -364 0 -366 0 -400 23 -89 59 -89 185 0
244 34 23 36 23 400 23 342 0 368 -1 395 -19z m-64 -360 c0 -17 -60 -60 -98
-71 -47 -13 -426 -13 -471 0 -33 9 -91 55 -91 72 0 4 149 8 330 8 192 0 330
-4 330 -9z m-479 -193 c0 -24 15 -384 32 -800 l32 -758 -27 0 c-16 0 -28 1
-29 3 -3 11 -75 1584 -72 1590 2 4 17 7 34 7 27 0 29 -2 30 -42z m359 5 c0
-21 -16 -375 -35 -788 -19 -412 -35 -755 -35 -762 0 -10 -23 -13 -89 -13 l-89
0 -6 283 c-3 155 -9 515 -12 800 l-6 517 136 0 136 0 0 -37z m38 -1657 c34
-18 62 -66 62 -106 0 -40 -28 -88 -62 -106 -17 -10 -85 -13 -250 -14 l-226 0
-31 26 c-62 52 -58 147 8 191 33 22 41 23 255 23 160 -1 227 -4 244 -14z
m-317 -353 c0 -27 6 -177 12 -335 9 -214 16 -290 26 -300 11 -11 12 44 6 335
l-7 347 76 0 c68 0 76 -2 76 -19 0 -119 -34 -659 -42 -675 -18 -33 -40 -45
-81 -46 -55 0 -84 32 -91 101 -6 64 -26 499 -26 582 0 54 1 57 25 57 23 0 25
-4 26 -47z"/>
<path d="M4218 4150 c-27 -27 -30 -35 -24 -71 3 -22 12 -48 18 -59 27 -43 44
-45 400 -44 322 0 339 1 365 20 58 44 54 44 -324 44 l-360 0 -21 23 c-24 25
-28 66 -12 98 17 30 -7 24 -42 -11z"/>
<path d="M4366 1948 c-22 -31 -20 -81 3 -109 19 -24 22 -24 226 -27 175 -3
210 -1 231 13 13 8 24 20 24 25 0 6 -80 10 -209 10 -173 0 -212 3 -225 15 -22
22 -28 52 -16 75 15 29 -14 27 -34 -2z"/>
<path d="M3010 5243 c0 -5 6 -32 14 -59 24 -82 28 -131 16 -169 -12 -38 -21
-43 -39 -21 -18 22 -143 74 -195 82 -55 8 -54 13 -21 -76 23 -61 15 -105 -39
-225 -25 -55 -48 -123 -52 -151 -8 -70 17 -154 60 -201 l33 -36 -23 -41 c-27
-47 -32 -122 -10 -164 8 -15 28 -40 45 -56 17 -17 31 -36 31 -43 0 -8 20 -33
44 -56 l44 -43 28 -569 c27 -553 28 -569 10 -579 -78 -45 -114 -111 -100 -182
8 -46 55 -99 100 -116 26 -9 34 -18 35 -38 0 -14 6 -126 13 -250 13 -248 18
-264 81 -294 44 -21 83 -20 123 4 50 31 59 65 66 255 4 94 9 202 12 240 l6 70
42 20 c46 22 82 70 92 121 11 59 -49 151 -115 176 -5 2 3 260 17 573 l25 570
40 34 c22 19 46 50 53 68 8 18 19 33 24 33 16 0 58 72 65 112 8 44 -8 98 -42
138 l-24 30 25 33 c58 76 69 158 36 272 -24 84 -26 201 -5 271 21 71 21 72
-29 64 -44 -7 -122 -47 -146 -74 -11 -14 -16 -10 -42 30 -36 57 -118 140 -178
180 -79 53 -120 76 -120 67z m181 -215 c29 -35 66 -92 83 -128 27 -57 31 -76
31 -151 0 -80 -2 -90 -42 -170 -23 -46 -55 -99 -71 -118 l-28 -34 -23 49 c-20
42 -23 60 -19 130 3 59 10 91 26 118 27 45 12 47 -22 3 -58 -76 -70 -151 -37
-244 l18 -53 -24 0 c-20 0 -29 11 -50 56 -44 97 -34 165 39 272 33 48 62 112
51 111 -15 -1 -135 -144 -155 -183 -26 -51 -22 -151 9 -214 l22 -43 -27 3
c-40 5 -75 80 -76 166 0 86 22 134 110 232 74 82 102 135 111 210 3 28 9 50
14 50 5 0 32 -28 60 -62z m-228 -109 c8 -13 1 -28 -37 -70 -103 -118 -129
-244 -74 -361 15 -32 23 -58 18 -58 -5 0 -23 12 -41 27 -64 54 -76 138 -33
238 14 33 37 87 51 119 14 36 25 81 26 112 l1 53 40 -22 c21 -12 44 -29 49
-38z m491 -231 c30 -105 15 -182 -46 -233 -24 -20 -40 -25 -88 -25 l-59 0 35
53 c64 96 78 148 79 279 1 110 3 120 26 144 l24 26 6 -94 c4 -52 14 -119 23
-150z m-15 -364 c32 -41 28 -98 -9 -135 l-29 -30 -272 3 -271 3 -19 24 c-38
47 -37 104 3 141 21 19 34 20 299 20 l278 0 20 -26z m-83 -243 c-3 -5 -21 -16
-40 -25 -46 -21 -300 -23 -350 -2 -75 31 -53 36 174 36 124 0 219 -4 216 -9z
m-304 -566 c9 -247 18 -501 21 -562 3 -87 1 -113 -8 -113 -16 0 -19 43 -45
595 -11 231 -22 446 -25 478 -5 56 -4 58 18 55 l22 -3 17 -450z m223 363 c-7
-104 -45 -961 -45 -1008 0 -30 0 -30 -59 -30 l-59 0 -6 358 c-3 196 -9 448
-12 559 l-6 202 78 4 c44 1 87 4 97 5 17 2 18 -5 12 -90z m34 -1123 c31 -15
41 -33 41 -70 0 -72 -33 -85 -210 -85 -180 0 -210 13 -210 89 0 30 15 53 45
69 32 18 300 15 334 -3z m-216 -352 c4 -71 7 -168 7 -218 0 -89 7 -135 19
-135 3 0 5 108 3 240 l-3 240 45 0 46 0 0 -67 c0 -38 -5 -147 -10 -243 -8
-158 -11 -177 -29 -192 -22 -17 -53 -14 -71 7 -16 19 -39 495 -24 495 7 0 13
-45 17 -127z"/>
<path d="M2892 4308 c-17 -17 -15 -74 3 -92 23 -23 90 -29 277 -24 177 5 202
9 212 34 5 12 -28 14 -213 14 -121 0 -226 3 -235 6 -10 4 -16 18 -16 40 0 36
-8 42 -28 22z"/>
<path d="M2990 2711 c-12 -24 -4 -48 21 -61 19 -11 217 -14 243 -4 9 3 16 12
16 20 0 10 -27 14 -122 16 -119 3 -123 4 -126 26 -4 27 -18 28 -32 3z"/>
<path d="M5904 5229 c36 -130 43 -227 16 -244 -5 -3 -28 8 -52 23 -24 16 -61
36 -83 44 -40 16 -135 34 -135 26 0 -2 9 -31 21 -63 27 -77 21 -117 -30 -233
-53 -117 -66 -177 -52 -244 12 -54 37 -103 70 -132 19 -17 19 -18 -5 -59 -26
-45 -31 -107 -14 -153 6 -15 29 -47 50 -71 22 -23 40 -47 40 -52 0 -6 18 -27
39 -48 l40 -38 25 -525 c14 -289 27 -547 29 -573 4 -46 3 -49 -28 -61 -39 -17
-71 -56 -86 -107 -10 -32 -9 -46 5 -83 18 -48 62 -92 101 -102 27 -7 31 -36
41 -304 3 -91 10 -179 15 -196 24 -78 120 -117 187 -74 49 30 59 66 66 240 13
307 15 328 42 334 40 10 93 65 104 107 21 77 -19 160 -90 189 -29 12 -30 16
-26 54 3 22 15 280 27 571 l22 530 44 38 c24 21 46 49 49 62 3 13 17 31 31 40
13 9 33 35 44 58 32 71 22 136 -28 189 l-25 26 27 36 c58 76 67 152 35 275
-24 89 -26 186 -5 264 8 32 15 62 15 66 0 5 -21 4 -47 0 -48 -9 -120 -46 -143
-73 -11 -14 -16 -11 -40 27 -56 89 -142 167 -254 232 l-49 29 7 -25z m252
-315 c41 -83 53 -167 35 -241 -15 -60 -63 -155 -104 -207 l-31 -39 -24 49
c-30 64 -28 177 4 242 26 51 15 55 -22 7 -55 -73 -67 -150 -35 -240 l19 -55
-23 0 c-36 0 -75 86 -75 165 0 53 5 69 36 121 65 105 86 144 82 153 -5 14
-140 -143 -161 -187 -24 -50 -18 -151 12 -209 l21 -43 -23 0 c-18 0 -30 12
-50 49 -22 40 -27 62 -27 122 0 91 17 129 105 227 81 90 106 138 113 216 l5
60 54 -59 c30 -33 70 -92 89 -131z m-302 12 c18 -14 16 -18 -29 -68 -108 -119
-137 -251 -82 -370 30 -68 19 -74 -34 -18 -64 67 -63 153 2 281 36 72 63 172
55 205 l-7 25 38 -20 c21 -11 46 -27 57 -35z m468 -53 c-2 -32 4 -92 14 -133
36 -161 32 -211 -25 -270 -35 -37 -42 -40 -94 -40 -32 0 -57 2 -57 5 0 2 14
26 30 52 65 102 93 218 79 322 -9 62 -8 65 18 93 15 15 29 28 32 28 3 0 5 -26
3 -57z m7 -549 c14 -18 21 -41 21 -69 0 -36 -5 -48 -31 -69 l-31 -26 -253 0
c-140 0 -265 4 -279 10 -56 21 -70 108 -24 157 21 23 22 23 299 23 l278 0 20
-26z m-83 -243 c-3 -5 -21 -16 -40 -25 -46 -21 -300 -23 -350 -2 -75 31 -53
36 174 36 124 0 219 -4 216 -9z m-321 -123 c2 -7 11 -224 19 -483 9 -258 19
-507 22 -552 5 -72 4 -83 -10 -83 -9 0 -16 4 -16 10 0 14 -49 995 -53 1063 -3
50 -1 57 15 57 10 0 20 -6 23 -12z m245 10 c0 -2 -11 -246 -25 -543 -14 -297
-25 -550 -25 -562 0 -21 -5 -23 -59 -23 l-59 0 -6 413 c-3 226 -9 478 -12 559
l-6 147 78 4 c44 1 87 4 97 5 9 1 17 1 17 0z m29 -1213 c31 -15 41 -33 41 -70
0 -72 -33 -85 -210 -85 -180 0 -211 13 -210 88 1 30 15 53 45 70 31 18 299 16
334 -3z m-216 -337 c4 -62 7 -149 7 -194 0 -92 9 -174 20 -174 3 0 4 108 2
240 l-5 240 48 0 47 0 -7 -214 c-4 -118 -10 -229 -14 -246 -9 -44 -38 -63 -71
-47 -22 11 -26 21 -31 77 -14 135 -21 430 -12 430 6 0 13 -51 16 -112z"/>
<path d="M5782 4308 c-17 -17 -15 -74 3 -92 23 -23 90 -29 277 -24 177 5 202
9 212 34 5 12 -29 14 -217 14 -240 0 -247 1 -247 52 0 30 -9 35 -28 16z"/>
<path d="M5882 2713 c-13 -25 3 -61 30 -68 13 -3 72 -5 133 -3 94 3 110 5 113
20 3 16 -10 18 -120 20 -119 3 -123 4 -126 26 -4 26 -18 29 -30 5z"/>
</g>
</svg>
